<svg width="325" height="146" viewBox="0 0 325 146" fill="none" xmlns="http://www.w3.org/2000/svg">
<path d="M84 109V101V93V85V77V69H76H68H60H52V61H60H68H76H84V53V45V37H92V45V53V61V69V77V85V93V101V109H84ZM36 109V101V93V85V77V69V61V53V45V37H44V45V53V61V69V77V85V93V101V109H36ZM132 101H140V109H132H124H116V101H124H132ZM140 101V93V85V77V69H148V77V85V93V101H140ZM116 101H108V93V85V77V69H116V77V85V93V101ZM140 69H132H124H116V61H124H132H140V69ZM220 109V101V93V85V77V69H228V77V85V93V101V109H220ZM196 109V101V93V85V77V69H204V77V85V93V101V109H196ZM164 109V101V93V85V77V69H172V77V85V93V101V109H164ZM220 69H212H204V61H212H220V69ZM196 69H188H180H172V61H180H188H196V69ZM268 101H276V109H268H260H252V101H260H268ZM276 101V93H284V101H276ZM252 101H244V93V85V77V69H252V77H260H268H276V85H268H260H252V93V101ZM276 77V69H284V77H276ZM276 69H268H260H252V61H260H268H276V69Z" fill="white"/>
<rect x="14" width="297" height="14" fill="white"/>
<rect y="14" width="14" height="118" fill="white"/>
<rect x="311" y="14" width="14" height="118" fill="white"/>
<rect x="14" y="132" width="297" height="14" fill="white"/>
</svg>
